<svg width="326" height="329" viewBox="0 0 326 329" fill="none" xmlns="http://www.w3.org/2000/svg">
<path fill-rule="evenodd" clip-rule="evenodd" d="M105.514 432.344C82.2288 396.13 54.1579 363.983 30.7043 327.18C16.976 305.627 -6.66583 269.393 3.95119 239.008C15.5987 205.619 56.1991 204.709 79.6675 202.019C107.6 198.817 140.402 194.442 164.306 173.594C171.867 167.003 178.307 158.279 181.037 146.789C183.96 134.491 180.765 123.731 180.348 111.42C179.476 85.5951 191.396 64.862 207.171 50.6237C229.465 30.4927 257.343 20.9749 283.675 14.3393C313.507 6.85502 343.835 3.16522 374.224 3.32264C403.266 3.45074 432.001 2.61812 461.073 1.65736C499.092 0.37636 537.646 2.44516 574.526 15.505C610.855 28.3791 643.886 52.5068 669.831 87.997C695.143 122.629 712.22 164.96 727.177 208.078C735.664 232.552 750.001 269.124 770.245 281.486C779.246 286.988 788.08 286.61 778.508 300.919C766.455 318.936 750.209 333.392 736.248 348.803C716.109 371.041 695.465 393.715 678.561 420.155C667.765 437.038 662.955 453.422 663.698 475.283C664.272 491.936 666.878 508.416 665.561 525.133C662.474 564.37 638.58 591.278 617.455 616.334C603.865 632.449 591.454 644.74 584.459 667.664C576.185 694.757 572.712 724.233 567.183 752.364C561.11 783.255 554.094 815.389 540.837 842.598C529.036 866.822 514.683 877.684 493.201 871.158C459.695 860.987 426.67 835.93 396.925 812.75C366.649 789.167 336.894 762.65 311.805 730.235C298.26 712.73 289.016 692.176 276.987 673.371C261.856 649.762 227.627 658.703 207.285 660.702C173.516 664.019 67.262 688.845 77.0665 608.437C81.1587 574.874 97.275 543.9 109.061 514.283C113.946 501.992 121.016 487.241 122.121 473.156C123.325 457.816 112.514 443.245 105.514 432.344Z" stroke="#FF8062" stroke-width="2"/>
</svg>
