<svg width="477" height="452" viewBox="0 0 477 452" fill="none" xmlns="http://www.w3.org/2000/svg">
<path fill-rule="evenodd" clip-rule="evenodd" d="M230.56 555.76C218.967 532.501 198.628 515.31 181.745 499.131C157.45 475.84 132.391 453.843 107.709 431.212C84.3702 409.811 60.9821 388.166 39.369 363.863C26.19 349.042 9.6541 331.319 3.41164 309.399C-10.1294 261.888 62.7175 269.096 80.7011 267.853C125.41 264.778 176.098 264.073 217.46 239.058C243.287 223.437 253.898 197.531 248.389 161.566C246.486 149.123 243.054 138.499 247.398 126.12C252.421 111.793 263.973 102.861 274.564 96.5557C307.74 76.8014 346.955 72.6046 382.917 69.1125C420.069 65.5051 458.778 62.9612 494.736 65.6011C509.115 66.6519 525.665 60.6866 539.896 56.1116C561.791 49.0634 583.464 40.9323 605.25 33.3715C649.528 17.9935 694.955 3.1795 741.018 1.49433C774.273 0.276909 808.946 6.87657 836.613 32.3847C864.652 58.2517 877.092 98.3497 892.641 136.468C919.495 202.369 955.765 282.494 1017.89 296.418C1027.31 298.532 1036.37 297.385 1045.78 297.904C1050.62 298.167 1056.13 299 1058.58 305.17C1064.95 321.189 1047.49 350.478 1041.62 362.748C1025.38 396.656 1007.13 428.905 990.121 462.16C976.609 488.565 959.484 517.905 954.258 549.206C947.916 587.189 989.352 614.216 1003.92 640.961C1029.19 687.338 981.325 713.762 957.728 735.875C930.631 761.261 908.265 807.574 932.555 846.852C941.847 861.871 953.281 870.823 957.431 890.423C963.921 921.076 959.013 956.106 953.747 986.407C945.814 1031.96 933.259 1077.02 916.193 1118.18C903.966 1147.66 883.682 1193.87 853.977 1190.41C833.98 1188.1 813.651 1179.64 794.18 1172.17C765.025 1160.99 736.238 1148.25 707.604 1135.01C641.505 1104.54 576.136 1070.93 512.05 1033.98C468.323 1008.75 346.35 905.66 337.172 901.982C309.807 891.025 278.694 892.954 250.482 894.652C212.953 896.907 175.612 902.751 138.301 908.165C120.541 910.728 102.691 913.862 84.8363 915.124C72.1282 916.021 55.4387 916.79 44.3074 907.236C22.5803 888.597 46.7865 845.949 56.7973 827.905C87.4641 772.59 126.258 724.687 162.631 675.708C180.481 651.661 198.604 627.652 214.807 601.676C221.342 591.187 237.724 570.126 230.56 555.76Z" stroke="#5ACEF2" stroke-width="2"/>
</svg>
