<svg width="375" height="366" viewBox="0 0 375 366" fill="none" xmlns="http://www.w3.org/2000/svg">
<path fill-rule="evenodd" clip-rule="evenodd" d="M147.319 468.666C118.065 427.512 82.8215 393.703 51.4158 355.192C37.3343 337.925 23.1141 319.811 12.3844 298.747C6.61295 287.419 0.484474 273.161 2.07608 259.081C6.64265 218.672 60.6432 222.321 82.4596 219.955C114.877 216.478 152.118 212.976 180.782 191.187C199.559 176.915 206.6 155.838 203.094 128.654C199.331 99.4954 207.745 78.3286 226.894 62.0621C250.902 41.6841 281.207 33.3777 309.083 27.4766C342.667 20.4009 376.677 17.2644 410.697 18.1054C443.784 18.9264 475.839 11.7553 508.708 7.0922C552.286 0.915302 597.262 -2.13146 640.35 10.5302C677.864 21.5563 711.749 45.8533 737.15 83.4278C763.682 122.644 776.816 172.053 798.36 215.439C811.797 242.501 830.534 278.298 855.643 288.818C864.018 292.326 879.279 287.593 872.59 304.853C868.768 314.725 861.613 323.384 855.96 331.453C846.827 344.493 837.392 357.174 828.105 370.035C808.311 397.449 787.115 425.447 772.28 457.909C753.587 498.781 781.373 530.236 777.987 571.678C776.167 593.981 764.178 611.78 751.495 625.763C743.289 634.82 734.309 642.665 725.141 649.983C715.567 657.629 704.237 663.453 695.887 673.337C683.988 687.404 689.154 704.055 691.385 722.239C695.312 754.196 696.175 786.658 693.954 818.889C691.237 858.394 684.865 899.028 671.443 934.929C666.222 948.905 659.608 963.722 649.785 973.093C639.963 982.464 629.804 981.823 618.548 979.001C585.164 970.662 551.85 951.259 520.181 932.87C480.545 909.849 441.687 884.122 404.579 854.853C378.964 834.649 353.266 812.821 331.836 785.426C325.604 777.453 319.673 768.916 314.879 759.384C311.586 752.848 309.821 744.413 305.051 739.5C290.127 724.164 260.164 728.743 242.661 729.635C207.73 731.412 173.35 739.859 138.463 741.912C119.424 743.034 89.6045 745.857 75.6222 724.888C62.4729 705.178 74.3826 674.133 82.2415 655.14C97.6865 617.797 118.437 584.526 137.035 549.812C144.681 535.528 153.061 520.583 158.014 504.271C162.417 489.737 154.816 479.217 147.319 468.666Z" stroke="#5ACEF2" stroke-width="2"/>
</svg>
